<svg width="122" height="84" viewBox="0 0 122 84" fill="none" xmlns="http://www.w3.org/2000/svg">
<path d="M34.3417 29.6637C37.9274 29.6637 40.8341 26.9022 40.8341 23.4956C40.8341 20.0891 37.9274 17.3275 34.3417 17.3275C30.756 17.3275 27.8492 20.0891 27.8492 23.4956C27.8492 26.9022 30.756 29.6637 34.3417 29.6637Z" fill="#1E9D43"/>
<path d="M105.097 38.1043C107.892 38.1043 110.158 35.9514 110.158 33.2956C110.158 30.6399 107.892 28.4869 105.097 28.4869C102.301 28.4869 100.035 30.6399 100.035 33.2956C100.035 35.9514 102.301 38.1043 105.097 38.1043Z" fill="#BC1828"/>
<path d="M120.943 24.1652C120.772 23.8608 120.666 23.6985 120.666 23.6985C120.666 23.6985 120.666 23.8811 120.666 24.226C120.666 24.4086 120.644 24.6115 120.644 24.855C120.644 25.0985 120.602 25.3825 120.58 25.6869C120.495 26.2956 120.388 27.026 120.132 27.8173C119.875 28.6086 119.512 29.4405 119 30.2724C118.744 30.6985 118.445 31.1043 118.124 31.5101C117.782 31.9159 117.441 32.3217 117.035 32.7275C116.95 32.8289 116.843 32.9304 116.736 33.0318C116.629 33.1333 116.544 33.2347 116.416 33.3362C116.202 33.5188 115.989 33.7217 115.754 33.9246C115.519 34.1275 115.284 34.3101 115.049 34.4927C114.921 34.5941 114.793 34.6753 114.664 34.7767C114.536 34.8782 114.408 34.9594 114.28 35.0608C114.152 35.142 114.024 35.2434 113.896 35.3246C113.767 35.4057 113.618 35.5072 113.49 35.5883C113.234 35.771 112.935 35.9333 112.657 36.1159C112.379 36.2782 112.102 36.4608 111.803 36.6231C111.504 36.7854 111.205 36.9478 110.906 37.1101C109.71 37.7391 108.428 38.3275 107.125 38.855C105.823 39.3825 104.499 39.8492 103.153 40.2753C101.829 40.7014 100.484 41.0666 99.1808 41.371C97.878 41.6956 96.5966 41.9391 95.3793 42.142C94.1619 42.3449 92.9873 42.4869 91.9195 42.5681C90.8303 42.6695 89.8265 42.6898 88.9509 42.6898C88.0539 42.6898 87.2851 42.6086 86.623 42.5478C86.3026 42.5072 86.0037 42.4666 85.7474 42.426C85.4911 42.3854 85.2775 42.3246 85.1067 42.3043C84.7436 42.2231 84.5514 42.1825 84.5514 42.1825C84.5514 42.1825 84.5941 42.2231 84.6582 42.284C84.7222 42.3449 84.829 42.4463 84.9572 42.5681C85.1067 42.6898 85.2775 42.8115 85.4911 42.9738C85.7047 43.1159 85.9609 43.2985 86.2599 43.4608C86.8579 43.8057 87.6268 44.1912 88.5451 44.5159C89.015 44.6782 89.5062 44.8405 90.0401 44.9825C90.2964 45.0434 90.574 45.1246 90.873 45.1854C91.1506 45.2463 91.4496 45.3072 91.7486 45.3681C92.9446 45.5912 94.2474 45.7333 95.6355 45.7536C97.0237 45.7941 98.476 45.7333 99.971 45.5709C101.466 45.4086 103.004 45.1449 104.541 44.7594C105.502 44.5159 106.442 44.2318 107.382 43.9072C107.424 43.9681 107.489 44.0492 107.531 44.1304C107.638 44.3333 107.788 44.5362 107.916 44.7594C107.98 44.8811 108.044 45.0028 108.108 45.1246C108.151 45.1854 108.172 45.2463 108.215 45.3072C108.257 45.3681 108.279 45.4289 108.3 45.5101C108.364 45.6521 108.407 45.7738 108.471 45.9159C108.535 46.0579 108.578 46.1999 108.62 46.3623C108.727 46.6666 108.813 46.9912 108.898 47.3159C108.941 47.4782 108.962 47.6608 109.005 47.8434C109.026 47.9246 109.026 48.026 109.048 48.1072C109.069 48.1883 109.069 48.2898 109.069 48.3912C109.09 48.5739 109.112 48.7565 109.133 48.9594C109.133 49.142 109.154 49.3449 109.154 49.5478C109.154 50.3391 109.112 51.171 108.962 52.0231C108.813 52.8753 108.599 53.7478 108.279 54.5999C107.98 55.4521 107.617 56.3043 107.19 57.1159C106.762 57.9275 106.293 58.7188 105.78 59.4492C105.524 59.8144 105.267 60.1796 104.99 60.5246C104.862 60.7072 104.712 60.8695 104.584 61.0318C104.456 61.1941 104.328 61.3565 104.178 61.5188C103.623 62.1478 103.068 62.7159 102.534 63.2231C102.256 63.4666 102 63.7304 101.744 63.9333C101.487 64.1565 101.252 64.3796 100.996 64.5623C100.761 64.7449 100.526 64.9275 100.313 65.0898C100.099 65.2521 99.9069 65.3941 99.7147 65.5159C99.6293 65.5768 99.5438 65.6376 99.4584 65.6985C99.373 65.7594 99.3089 65.7999 99.2235 65.8405C99.074 65.942 98.9672 66.0231 98.8604 66.084C98.6682 66.2057 98.5614 66.2869 98.5614 66.2869C98.5614 66.2869 98.6896 66.2463 98.9031 66.1449C99.0099 66.1043 99.1594 66.0434 99.3089 65.9825C99.3943 65.942 99.4798 65.9217 99.5652 65.8811C99.6506 65.8405 99.7574 65.7999 99.8642 65.7594C100.078 65.6579 100.291 65.5565 100.548 65.455C100.783 65.3333 101.06 65.2115 101.338 65.0695C101.615 64.9275 101.914 64.7652 102.213 64.5825C102.534 64.4202 102.833 64.2173 103.174 64.0144C103.837 63.6086 104.52 63.1217 105.246 62.5739C105.417 62.4318 105.588 62.2898 105.78 62.1478C105.951 62.0057 106.143 61.8637 106.314 61.7014C106.656 61.397 107.04 61.0724 107.382 60.7275C108.108 60.0579 108.791 59.3072 109.453 58.4956C109.624 58.2927 109.774 58.0898 109.945 57.8869C110.094 57.684 110.265 57.4608 110.414 57.2579C110.5 57.1565 110.564 57.0347 110.649 56.9333L110.863 56.6086C111.012 56.3854 111.162 56.1623 111.29 55.9391C111.845 55.026 112.337 54.0521 112.742 53.0579C113.148 52.0637 113.447 51.0289 113.661 49.9941C113.703 49.7304 113.746 49.4666 113.81 49.2231C113.853 48.9594 113.874 48.7159 113.896 48.4521C113.917 48.3304 113.938 48.1883 113.938 48.0666C113.938 47.9449 113.96 47.8028 113.96 47.6811C113.96 47.4376 113.981 47.1738 113.981 46.9304C113.96 46.4231 113.96 45.9362 113.896 45.4695C113.874 45.226 113.853 45.0028 113.81 44.7796C113.767 44.5565 113.725 44.3333 113.682 44.1101C113.661 44.0086 113.639 43.8869 113.618 43.7854C113.597 43.684 113.554 43.5825 113.533 43.4608C113.468 43.2579 113.426 43.055 113.362 42.8521C113.234 42.4666 113.105 42.0811 112.977 41.7362C112.935 41.6347 112.892 41.5536 112.87 41.4521C113.041 41.3507 113.191 41.2695 113.362 41.1681C114.045 40.7623 114.707 40.3159 115.326 39.8492C115.946 39.3825 116.565 38.8956 117.12 38.3681C117.676 37.8405 118.21 37.313 118.701 36.7449C119.192 36.197 119.619 35.6086 120.004 35.0202C120.089 34.8782 120.196 34.7159 120.281 34.5738C120.367 34.4318 120.452 34.2695 120.538 34.1275C120.708 33.8231 120.858 33.5188 120.986 33.2347C121.264 32.626 121.477 32.0376 121.627 31.4289C121.947 30.2521 122.032 29.1362 121.99 28.1623C121.926 27.1883 121.733 26.3767 121.52 25.7478C121.456 25.5854 121.413 25.4434 121.37 25.3014C121.328 25.1594 121.264 25.0376 121.2 24.9159C121.136 24.7941 121.093 24.6927 121.05 24.5912C121.029 24.3275 120.986 24.2463 120.943 24.1652Z" fill="#BC1828"/>
<path d="M78.0376 13.9797C81.6233 13.9797 84.5301 11.2181 84.5301 7.81155C84.5301 4.40499 81.6233 1.64343 78.0376 1.64343C74.4519 1.64343 71.5452 4.40499 71.5452 7.81155C71.5452 11.2181 74.4519 13.9797 78.0376 13.9797Z" fill="#1864AD"/>
<path d="M98.1343 23.2116C98.0062 23.2522 97.878 23.2928 97.7072 23.3333C97.5577 23.3739 97.3868 23.4348 97.216 23.4754C96.8529 23.5565 96.4258 23.6783 95.9773 23.8C95.7424 23.8406 95.5074 23.9014 95.2512 23.9623C94.9949 24.0232 94.7386 24.0841 94.461 24.1246C93.9057 24.2058 93.3291 24.3478 92.6884 24.3884C91.4283 24.5304 90.0401 24.5913 88.5879 24.4087C88.2248 24.3478 87.8617 24.3275 87.4987 24.2464C87.3065 24.2058 87.1356 24.1652 86.9434 24.1449C86.7725 24.1043 86.5803 24.0435 86.3881 24.0029C86.025 23.9217 85.662 23.7797 85.2989 23.658C85.1067 23.5971 84.9359 23.5159 84.7436 23.4551C84.5514 23.3739 84.3806 23.313 84.1884 23.2319C83.4622 22.9072 82.7361 22.5217 82.0313 22.0754C81.3266 21.6087 80.6004 21.142 79.8957 20.5739C79.7248 20.4319 79.5326 20.2899 79.3617 20.1478C79.1909 20.0058 78.9987 19.8638 78.8278 19.7014C78.4861 19.3971 78.1231 19.0928 77.7813 18.7681C77.0766 18.1188 76.3932 17.4493 75.7097 16.7391C74.3215 15.3188 72.9547 13.7768 71.5665 12.2145C70.157 10.6522 68.7474 9.04928 67.2098 7.48696C65.6934 5.92464 64.0703 4.42319 62.2336 3.08406C61.3153 2.41449 60.3329 1.8058 59.265 1.29855C58.1972 0.791304 57.0439 0.385507 55.848 0.162319C54.652 -0.0608696 53.4133 -0.0405797 52.2814 0.142029C51.1495 0.324638 50.1457 0.730435 49.2701 1.17681C49.0565 1.29855 48.8429 1.4 48.6507 1.52174C48.4585 1.64348 48.2663 1.76522 48.0741 1.90725C47.8819 2.02899 47.711 2.15072 47.5402 2.29275C47.3693 2.43478 47.2198 2.55652 47.049 2.69855C46.7286 2.96232 46.451 3.22609 46.1733 3.48985C46.0452 3.63188 45.8957 3.75362 45.7889 3.87536C45.6608 4.01739 45.554 4.13913 45.4259 4.28116C45.3191 4.4029 45.1909 4.54493 45.0842 4.66667C44.9774 4.78841 44.8706 4.93043 44.7852 5.05217C44.5929 5.29565 44.4007 5.55942 44.2299 5.78261C43.9095 6.26957 43.5892 6.71594 43.3543 7.12174C43.098 7.54783 42.8844 7.91304 42.7136 8.23768C42.5427 8.56232 42.4146 8.84638 42.3078 9.06956C42.0942 9.51594 41.9874 9.77971 41.9874 9.77971C41.9874 9.77971 42.2224 9.61739 42.6281 9.29275C42.8417 9.13043 43.0766 8.92754 43.3756 8.70435C43.6746 8.48116 44.0163 8.23768 44.3794 7.95362C44.7638 7.68986 45.1909 7.38551 45.6394 7.06087C46.1093 6.77681 46.6005 6.41159 47.1558 6.10725C48.245 5.47826 49.4836 4.86957 50.7864 4.54493C51.4485 4.4029 52.0892 4.30145 52.7299 4.36232C53.3706 4.4029 53.9899 4.54493 54.6093 4.76812C54.7588 4.82899 54.9296 4.88985 55.0791 4.97101C55.2286 5.05217 55.3995 5.13333 55.549 5.21449C55.6985 5.31594 55.8693 5.3971 56.0188 5.49855C56.1897 5.6 56.3392 5.70145 56.51 5.8029C57.1507 6.24928 57.7914 6.77681 58.4535 7.36522C59.7562 8.56232 61.059 10.0029 62.3831 11.5449C63.0452 12.3159 63.7286 13.1072 64.412 13.8986C64.1771 14.2435 63.9849 14.6493 63.7713 15.0348C63.6432 15.258 63.5791 15.4812 63.4723 15.7246C63.3869 15.9681 63.2801 16.2116 63.1947 16.4551C63.1306 16.6985 63.0452 16.9623 62.9811 17.2261C62.9598 17.287 62.9384 17.3478 62.9384 17.429C62.917 17.4899 62.917 17.5507 62.8957 17.6319C62.8743 17.7739 62.853 17.8957 62.8316 18.0377C62.7248 18.5855 62.7248 19.113 62.6821 19.6812C62.7035 20.229 62.7035 20.7768 62.7889 21.3246C62.853 21.8725 62.9598 22.4 63.0665 22.9478C63.216 23.4754 63.3442 24.0029 63.515 24.5101C63.6859 25.0377 63.8781 25.5246 64.0917 26.0522C64.3052 26.5391 64.5188 27.0667 64.7751 27.5536C65.2449 28.5478 65.8002 29.5217 66.3768 30.4956C67.5301 32.4232 68.8115 34.3507 70.157 36.2783C71.5025 38.2058 72.912 40.1739 74.3215 42.142C75.7097 44.1304 77.0979 46.1391 78.4007 48.2087C79.0627 49.2435 79.6607 50.2783 80.2801 51.313C80.5791 51.8406 80.8781 52.3478 81.1557 52.8956C81.3052 53.1594 81.4333 53.4232 81.5828 53.687C81.711 53.9507 81.8391 54.2145 81.9886 54.4783C83.0565 56.5884 83.9107 58.7391 84.5728 60.8696C85.2348 63 85.6406 65.1101 85.7901 67.1391C85.961 69.1681 85.8542 71.0956 85.5766 72.8812C85.2989 74.6464 84.8077 76.2493 84.2738 77.629C84.2097 77.8116 84.1457 77.9739 84.0816 78.1362C84.0389 78.2174 84.0175 78.2985 83.9748 78.3797C83.9321 78.4609 83.9107 78.542 83.868 78.6232C83.7185 78.9478 83.5904 79.2522 83.4622 79.5362C83.4195 79.6174 83.3982 79.6783 83.3555 79.7594C83.3127 79.8203 83.2914 79.9015 83.2487 79.9623C83.1846 80.1043 83.0992 80.2261 83.0351 80.3681C82.907 80.6319 82.7575 80.8754 82.6507 81.1188C82.373 81.5855 82.1381 81.9913 81.9246 82.3565C81.8178 82.5391 81.711 82.7014 81.6042 82.8435C81.4974 82.9855 81.412 83.1275 81.3266 83.2493C81.0062 83.7362 80.8354 84 80.8354 84C80.8354 84 81.0276 83.7565 81.412 83.3101C81.4974 83.1884 81.6042 83.0667 81.7323 82.9246C81.8391 82.7826 81.9673 82.6406 82.0954 82.458C82.3517 82.113 82.6293 81.7275 82.971 81.2812C83.1205 81.058 83.2914 80.8145 83.4409 80.571C83.5263 80.4493 83.6117 80.3072 83.6972 80.1855C83.7399 80.1246 83.7826 80.0435 83.8253 79.9826C83.868 79.9217 83.9107 79.8406 83.9534 79.7797C84.1243 79.4956 84.2952 79.1913 84.466 78.887C84.5087 78.8058 84.5514 78.7246 84.5941 78.6638C84.6369 78.5826 84.6796 78.5014 84.7223 78.4203C84.8077 78.258 84.8931 78.0956 84.9786 77.913C85.662 76.5536 86.3454 74.9507 86.8366 73.1449C87.3278 71.3188 87.6482 69.2898 87.7122 67.1188C87.7763 64.9478 87.5841 62.6551 87.1142 60.3217C86.6657 57.9884 85.9823 55.6348 85.1067 53.3014C84.9999 53.0174 84.8931 52.713 84.7864 52.429C84.6796 52.1449 84.5514 51.8406 84.4446 51.5565C84.2097 50.9681 83.9534 50.4 83.7185 49.8116C83.206 48.6551 82.672 47.5188 82.1168 46.3826C79.8743 41.7768 77.3115 37.4754 75.0904 33.458C73.9798 31.4493 72.9547 29.5217 72.1218 27.7159C71.716 26.8029 71.3316 25.9304 71.0326 25.0986C70.8618 24.6725 70.755 24.2667 70.6268 23.8812C70.5201 23.4957 70.4133 23.1101 70.3278 22.7449C70.2424 22.3797 70.1997 22.0348 70.1356 21.6899C70.1143 21.3652 70.0716 21.0406 70.0929 20.7565C70.0716 20.513 70.1143 20.3101 70.1143 20.1072C70.4346 20.4116 70.755 20.7362 71.0967 21.0406C71.2889 21.2232 71.5025 21.4261 71.716 21.6087C71.9296 21.7913 72.1432 21.9739 72.3567 22.1565C72.7839 22.5217 73.211 22.8667 73.6595 23.2116C74.108 23.5565 74.5565 23.8812 75.0263 24.2058C75.2612 24.3681 75.4962 24.5304 75.7311 24.6725C75.966 24.8348 76.2009 24.9768 76.4572 25.1188C76.6922 25.2609 76.9484 25.4029 77.1834 25.5449C77.4396 25.687 77.6746 25.8087 77.9308 25.9507C78.059 26.0116 78.1871 26.0928 78.2939 26.1536C78.422 26.2145 78.5502 26.2754 78.6783 26.3362C78.9346 26.458 79.1909 26.5797 79.4472 26.6812C79.9811 26.8841 80.4723 27.1072 81.0062 27.2696C81.2625 27.3507 81.5188 27.4522 81.7964 27.513C82.0527 27.5739 82.3303 27.6551 82.5866 27.7159C84.7009 28.2435 86.8153 28.3043 88.6733 28.0609C90.5313 27.8174 92.1117 27.2899 93.4145 26.7014C94.0765 26.4174 94.6532 26.0928 95.1657 25.8087C95.6783 25.5043 96.1482 25.2 96.5539 24.9159C96.9597 24.6116 97.3014 24.3478 97.6004 24.1246C97.8994 23.9014 98.1343 23.658 98.3265 23.4957C98.711 23.1507 98.9032 22.9478 98.9032 22.9478C98.9032 22.9478 98.6469 23.0696 98.1343 23.2116Z" fill="#1864AD"/>
<path d="M60.9522 32.6463C60.824 32.6869 60.6532 32.7275 60.4183 32.8086C60.3115 32.8492 60.1833 32.8898 60.0338 32.9304C59.8843 32.971 59.7348 33.0318 59.564 33.0724C59.2223 33.1739 58.8379 33.2753 58.4107 33.397C57.9836 33.5188 57.5137 33.6405 57.0012 33.7825C56.4886 33.9043 55.9333 34.0666 55.3353 34.1681C54.1607 34.4318 52.8153 34.6753 51.3843 34.8173C51.0213 34.8579 50.6582 34.8782 50.2738 34.9188C49.9107 34.9391 49.5263 34.9594 49.1419 34.9796C48.7575 34.9796 48.373 34.9999 47.9673 34.9999C47.5615 34.9797 47.1771 34.9999 46.7713 34.9796C46.5791 34.9796 46.3655 34.9594 46.1733 34.9594C45.9597 34.9391 45.7675 34.9391 45.554 34.9188C45.1482 34.8985 44.721 34.8376 44.3153 34.797C43.4823 34.6956 42.6281 34.5739 41.7738 34.3912C41.3467 34.3101 40.9195 34.2086 40.4924 34.1072C40.0653 34.0057 39.6381 33.884 39.1896 33.7623C38.314 33.5188 37.4597 33.2347 36.5841 32.9304C36.157 32.7883 35.7085 32.6057 35.26 32.4434C35.0464 32.3623 34.8115 32.2608 34.5979 32.1796C34.3844 32.0985 34.1494 31.997 33.9359 31.9159C33.0603 31.5507 32.1846 31.1652 31.2876 30.7594C29.5364 29.9681 27.7638 29.0956 26.0125 28.2231C24.2613 27.3507 22.51 26.4782 20.7588 25.6666C19.0075 24.855 17.2776 24.1246 15.5691 23.4956C13.8605 22.8869 12.1947 22.3797 10.5929 22.055C9.01255 21.7304 7.51758 21.5478 6.19346 21.5275C4.86934 21.5072 3.71607 21.6086 2.79773 21.771C1.87939 21.9333 1.17462 22.1362 0.704773 22.2782C0.469849 22.3594 0.298995 22.4202 0.170854 22.4608C0.0427135 22.5014 0 22.5217 0 22.5217C0 22.5217 0.0640703 22.5217 0.192211 22.542C0.320351 22.5623 0.512562 22.5623 0.747486 22.5825C0.875627 22.5825 1.00377 22.6028 1.15326 22.6231C1.30276 22.6434 1.45226 22.6637 1.62311 22.684C1.79397 22.7043 1.98618 22.7449 2.17839 22.7652C2.3706 22.8057 2.58417 22.826 2.79773 22.8666C3.652 23.0086 4.67713 23.2521 5.80904 23.6173C6.94094 23.9623 8.17964 24.4695 9.4824 25.0782C10.7852 25.6869 12.1733 26.4173 13.647 27.2492C15.0992 28.0811 16.6156 28.9941 18.2173 29.9681C19.8191 30.942 21.4849 31.9362 23.2361 32.9304C23.4711 33.0521 23.706 33.1941 23.9409 33.3159C23.5565 33.9246 23.1507 34.6144 22.7449 35.426C22.1897 36.5014 21.6344 37.7796 21.2073 39.2202C21.1645 39.4028 21.1005 39.5854 21.0364 39.7681C20.9937 39.9507 20.951 40.1333 20.8869 40.3362C20.7801 40.7217 20.716 41.1072 20.6306 41.513C20.4811 42.3043 20.3957 43.1362 20.353 44.0086C20.3103 44.8608 20.3316 45.7536 20.4171 46.6666C20.5025 47.5594 20.6733 48.4724 20.9083 49.3854C21.1432 50.2985 21.4635 51.1912 21.848 52.0637C22.2324 52.9362 22.7022 53.7883 23.2148 54.5999C23.7274 55.4115 24.3253 56.2028 24.9447 56.9333C25.5854 57.6637 26.2688 58.3536 26.9736 59.0028C27.3366 59.3275 27.6997 59.6318 28.0841 59.9362C28.4686 60.2405 28.8316 60.5246 29.2374 60.8086C30.0062 61.3565 30.8178 61.884 31.6294 62.3507C31.8216 62.4724 32.0351 62.5941 32.2487 62.6956C32.4623 62.797 32.6545 62.9188 32.868 63.0202C33.2738 63.2231 33.701 63.4463 34.1067 63.6289C34.9396 64.0144 35.7726 64.3594 36.5841 64.684C39.8944 65.942 43.1193 66.6521 45.8743 67.0782C47.2625 67.2811 48.5225 67.4434 49.6544 67.5246C50.2097 67.5652 50.7436 67.6057 51.2348 67.6463C51.7261 67.6666 52.1745 67.6869 52.5803 67.7072C52.9861 67.7275 53.3492 67.7275 53.6695 67.7478C53.9899 67.7478 54.2462 67.7478 54.4597 67.7681C54.8869 67.7681 55.1218 67.7681 55.1218 67.7681C55.1218 67.7681 54.8869 67.7478 54.4597 67.6869C54.2462 67.6666 53.9899 67.626 53.6695 67.5854C53.3492 67.5449 53.0075 67.484 52.6017 67.4434C52.1959 67.3825 51.7688 67.3014 51.2776 67.2405C50.8077 67.1594 50.2738 67.0579 49.7399 66.9565C48.6507 66.7536 47.412 66.4695 46.0879 66.1246C43.4396 65.4347 40.4283 64.3999 37.4597 62.8782C36.7123 62.4927 35.9861 62.0869 35.26 61.6405C34.8969 61.4173 34.5339 61.1941 34.1922 60.9507C34.0213 60.8289 33.8505 60.7072 33.6582 60.5854C33.4874 60.4637 33.3165 60.342 33.1457 60.2202C32.4623 59.713 31.8002 59.1854 31.1595 58.6173C30.8391 58.3333 30.5402 58.0492 30.2412 57.7449C29.9422 57.4405 29.6645 57.1362 29.3869 56.8318C28.8316 56.2028 28.3191 55.5536 27.8706 54.884C27.4221 54.2144 27.0163 53.5246 26.6746 52.8144C26.3329 52.1043 26.0552 51.3941 25.8417 50.684C25.6281 49.9739 25.4786 49.2434 25.3718 48.5333C25.1796 47.113 25.2223 45.7333 25.4359 44.4753C25.5427 43.8463 25.6922 43.2173 25.8844 42.6289C25.9912 42.3449 26.0766 42.0405 26.1834 41.7768C26.2261 41.6347 26.2902 41.4927 26.3329 41.371C26.3969 41.2289 26.4397 41.1072 26.5037 40.9652C26.9522 39.9101 27.5075 38.997 28.0201 38.2057C28.554 37.4144 29.0665 36.7652 29.515 36.2173C29.5364 36.197 29.5577 36.1768 29.5577 36.1565C30.2412 36.4608 30.9459 36.7449 31.6507 37.0086C32.6545 37.3941 33.6582 37.7391 34.7047 38.0434C35.2173 38.2057 35.7298 38.3275 36.2638 38.4695C36.7977 38.5912 37.3102 38.713 37.8228 38.8144C38.3354 38.9159 38.8693 38.997 39.3819 39.0782C39.6381 39.1188 39.9158 39.1391 40.1721 39.1796C40.4283 39.2202 40.6846 39.2405 40.9623 39.2608C41.2185 39.2811 41.4748 39.3014 41.7311 39.3217C41.9874 39.342 42.2437 39.342 42.4999 39.3623C43.0125 39.3825 43.5251 39.3825 44.0163 39.3825C44.5288 39.3623 45.02 39.3623 45.5112 39.3014C45.7462 39.2811 46.0024 39.2608 46.2374 39.2405C46.4723 39.2202 46.7072 39.1797 46.9421 39.1594C47.412 39.0985 47.8818 39.0173 48.3303 38.9362C48.7788 38.855 49.2273 38.7536 49.6544 38.6521C50.0816 38.5304 50.5087 38.4289 50.9145 38.3072C51.3203 38.1854 51.7261 38.0637 52.1105 37.9217C53.6482 37.3941 54.9723 36.7449 56.1042 36.1362C56.6595 35.8318 57.172 35.5072 57.6419 35.2231C58.1117 34.9188 58.5175 34.6347 58.8806 34.371C59.6067 33.8231 60.162 33.397 60.525 33.0724C60.7172 32.9101 60.8454 32.7883 60.9308 32.7072C61.0162 32.626 61.0803 32.5854 61.0803 32.5854C61.0803 32.5854 61.0803 32.6057 60.9522 32.6463Z" fill="#1A9C42"/>
</svg>
